<svg width="688" height="688" viewBox="0 0 688 688" fill="none" xmlns="http://www.w3.org/2000/svg">
<g opacity="0.05" clip-path="url(#clip0)">
<path d="M344 14.3333C153.94 14.3333 0 165.693 0 352.371C0 501.752 98.556 628.43 235.21 673.093C252.41 676.275 258.717 665.812 258.717 656.839C258.717 648.812 258.43 627.542 258.287 599.362C162.597 619.744 142.416 554.012 142.416 554.012C126.764 514.996 104.146 504.562 104.146 504.562C72.9853 483.606 106.554 484.036 106.554 484.036C141.097 486.387 159.243 518.866 159.243 518.866C189.917 570.552 239.768 555.617 259.433 546.988C262.529 525.116 271.387 510.238 281.22 501.781C204.823 493.324 124.528 464.256 124.528 334.741C124.528 297.847 137.858 267.689 159.931 244.039C156.061 235.497 144.451 201.125 162.941 154.571C162.941 154.571 191.751 145.512 257.541 189.229C285.061 181.718 314.301 177.991 343.541 177.819C372.781 177.991 402.021 181.718 429.541 189.229C494.901 145.512 523.711 154.571 523.711 154.571C542.201 201.125 530.591 235.497 527.151 244.039C549.081 267.689 562.411 297.847 562.411 334.741C562.411 464.6 482.001 493.181 405.461 501.494C417.501 511.642 428.681 532.368 428.681 564.045C428.681 609.281 428.251 645.63 428.251 656.61C428.251 665.468 434.271 676.046 451.901 672.663C589.53 628.287 688 501.523 688 352.371C688 165.693 533.974 14.3333 344 14.3333V14.3333Z" fill="url(#paint0_linear)"/>
</g>
<defs>
<linearGradient id="paint0_linear" x1="344" y1="14.3333" x2="344" y2="673.676" gradientUnits="userSpaceOnUse">
<stop stop-color="#121214"/>
<stop offset="1" stop-color="#121214" stop-opacity="0"/>
</linearGradient>
<clipPath id="clip0">
<rect width="688" height="688" fill="white"/>
</clipPath>
</defs>
</svg>
